<?xml version="1.0" encoding="UTF-8"?>
<!-- Created with Inkscape (http://www.inkscape.org/) -->
<svg width="134.06mm" height="126.65mm" version="1.1" viewBox="0 0 134.06 126.65" xmlns="http://www.w3.org/2000/svg">
 <defs>
  <clipPath id="clipPath3979-4">
   <path d="m-81.45 412.27h380v359h-380z"/>
  </clipPath>
 </defs>
 <g transform="translate(-40.154 -18.283)">
  <g transform="matrix(.35278 0 0 -.35278 68.888 290.37)">
   <g clip-path="url(#clipPath3979-4)" opacity=".56">
    <path d="m277.71 412.27c33 188 32 359-39.85 359-12.23 0-27.57-9.398-39.709-18.644-1.377 1.5034-2.2071 2.2769-2.2071 2.2769-15.863 4.852-17.307-15.366-17.307-15.366s-19.096 12.953-74.275 6.855c-22.56-2.4931-40.992-8.4521-54.91-14.626-0.0743 0.9126-1.8165 20.059-17.303 15.322 0 0-1.0722-1.001-2.7988-2.9316-12.465 10.785-33.994 27.113-50.117 27.113-71.85 0-72.85-171-39.85-359 3.0469 266.09 50.607 282.86 62.83 282.76-11.883-16.429-26.32-43.983-29.15-83.267 1.6465 3.2373 3.248 6.272 4.8066 9.1343-1.2187-11.708 7.8321-31.433 16.543-40.235 1.1445-31.206 6.3516-60.564 20.297-73.391-6.9727 18.422-8.2578 42.088-6.6133 66.288 23.441-35.835 80.635-55.403 100.96-55.403 18.986 0 74.666 18.736 99.264 53.115 1.3282-17.908 2.3868-38.157 3.0176-61.014 3.3574 27.379 5.1407 50.821 5.8731 70.753 15.541 8.0064 37.785 57.277 8.4609 52.489-0.5254 19.703-3.041 35.852-6.6641 49.059 3.5665-5.7588 7.5547-9.1001 5.5215 9.478 18.35-11.181 50.682-61.914 53.178-279.76m-280.75 238.06c-2.9102-3.8281-5.7051-7.5776-7.8164-10.568 2.8144 4.2276 5.4277 7.7749 7.834 10.745-0.0059-0.0595-0.0118-0.1172-0.0176-0.1772m-14.52-21.331c1.0918 1.8604 2.1602 3.6338 3.2012 5.312 0-5e-4 0-1e-3 -0.0019-2e-3 1.5859 1.2954 5.8242 4.582 10.633 8.2388-0.3692-4.4307-0.7129-9.0816-1.0137-13.892-5.8691 1.9262-10.033 1.8437-12.818 0.3427m236.78 2.8291c-0.6543 6.5498-1.6992 12.712-3.3242 18.446 2.3593-4.9101 4.8027-10.622 7.2968-17.281-1.2421-0.2998-2.5683-0.6905-3.9726-1.1651m-44.978-8.0576s-34.299-22.841-47.184-9.355c-11.857 12.412 47.184 9.355 47.184 9.355m-100.03-9.355c-12.885-13.486-47.186 9.355-47.186 9.355s59.041 3.0566 47.186-9.355z"/>
   </g>
  </g>
  <g fill="#fff">
   <path d="m70.043 80.165c0 1.8509-0.71039 3.3514-1.5875 3.3514-0.87644 0-1.5875-1.5005-1.5875-3.3514 0-1.8509 0.71106-3.3514 1.5875-3.3514 0.87711 0 1.5875 1.5005 1.5875 3.3514z"/>
   <path d="m146.75 81.04c0 1.9446-0.82476 3.5209-1.8411 3.5209-1.017 0-1.8417-1.5763-1.8417-3.5209 0-1.9446 0.82476-3.5209 1.8417-3.5209 1.0163 0 1.8411 1.5763 1.8411 3.5209z"/>
   <rect transform="rotate(-17.718)" x="39.866" y="98.968" width=".96201" height="4.7188" stroke-width=".61748"/>
   <rect transform="matrix(-.95257 -.30433 -.30433 .95257 0 0)" x="-163.42" y="35.015" width=".96201" height="4.7188" stroke-width=".61748"/>
  </g>
 </g>
</svg>
