<?xml version="1.0" encoding="UTF-8" standalone="no"?>
<!-- Created with Inkscape (http://www.inkscape.org/) -->

<svg
   width="210mm"
   height="297mm"
   viewBox="0 0 210 297"
   version="1.1"
   id="svg5"
   inkscape:version="1.1.1 (3bf5ae0d25, 2021-09-20)"
   sodipodi:docname="speaker.svg"
   xmlns:inkscape="http://www.inkscape.org/namespaces/inkscape"
   xmlns:sodipodi="http://sodipodi.sourceforge.net/DTD/sodipodi-0.dtd"
   xmlns="http://www.w3.org/2000/svg"
   xmlns:svg="http://www.w3.org/2000/svg">
  <sodipodi:namedview
     id="namedview7"
     pagecolor="#ffffff"
     bordercolor="#999999"
     borderopacity="1"
     inkscape:pageshadow="0"
     inkscape:pageopacity="0"
     inkscape:pagecheckerboard="0"
     inkscape:document-units="mm"
     showgrid="false"
     showguides="true"
     inkscape:zoom="0.74118968"
     inkscape:cx="7.4205027"
     inkscape:cy="690.10675"
     inkscape:window-width="1920"
     inkscape:window-height="1017"
     inkscape:window-x="-8"
     inkscape:window-y="-8"
     inkscape:window-maximized="1"
     inkscape:current-layer="layer1" />
  <defs
     id="defs2" />
  <g
     inkscape:label="Layer 1"
     inkscape:groupmode="layer"
     id="layer1">
    <path
       id="path4779"
       style="fill:#000000;fill-opacity:1;fill-rule:evenodd;stroke:none;stroke-width:10.0831;stroke-linejoin:round;stroke-miterlimit:4;stroke-dasharray:none;stroke-opacity:1"
       d="m 105.01791,153.7034 c -0.41945,0 -0.83705,0.006 -1.25391,0.0167 -0.41687,0.0108 -0.83236,0.0255 -1.2465,0.0464 -0.41415,0.0209 -0.82682,0.0478 -1.23813,0.0789 -0.41129,0.0312 -0.82145,0.0673 -1.22978,0.10859 -0.408332,0.0413 -0.815256,0.0879 -1.220503,0.13922 -0.405247,0.0514 -0.809196,0.10767 -1.211221,0.16893 -0.40202,0.0612 -0.802335,0.12769 -1.20101,0.19861 -0.398678,0.0709 -0.795595,0.14676 -1.190801,0.2274 -0.395206,0.0807 -0.788055,0.16602 -1.179662,0.25617 -0.391605,0.0901 -0.781574,0.18451 -1.169456,0.28401 -0.387878,0.0995 -0.774283,0.20308 -1.158316,0.31185 -0.384034,0.10884 -0.766195,0.22273 -1.146252,0.34063 -0.380056,0.11782 -0.758225,0.24063 -1.134185,0.36754 -0.375955,0.12698 -0.749458,0.25772 -1.121189,0.39353 -0.37173,0.13578 -0.740824,0.2759 -1.108197,0.42045 -0.367376,0.14457 -0.733233,0.29326 -1.09613,0.44642 -0.362902,0.15321 -0.723915,0.31077 -1.082212,0.47243 -0.358292,0.16165 -0.713794,0.32836 -1.067357,0.49841 -0.353563,0.17008 -0.704732,0.34425 -1.053439,0.52255 -0.348712,0.17835 -0.694857,0.36024 -1.038588,0.54667 -0.343727,0.18642 -0.685116,0.37731 -1.023734,0.57172 -0.338622,0.19446 -0.67457,0.39264 -1.007961,0.59494 -0.333386,0.20231 -0.664148,0.40808 -0.992178,0.61815 -0.328026,0.21005 -0.65293,0.42461 -0.975472,0.64227 -0.322547,0.21768 -0.64276,0.43843 -0.959695,0.66361 -0.316934,0.22518 -0.630861,0.4543 -0.942059,0.68683 -0.311194,0.23255 -0.620021,0.4693 -0.925356,0.7091 -0.305334,0.2398 -0.606516,0.48261 -0.905863,0.72952 -0.299347,0.24691 -0.596854,0.49788 -0.890086,0.75178 -0.293231,0.25392 -0.58267,0.51145 -0.869667,0.77222 -0.286991,0.26076 -0.571402,0.52418 -0.852026,0.79169 -0.280629,0.26753 -0.558406,0.538 -0.832543,0.81213 -0.274137,0.27415 -0.544602,0.55191 -0.81212,0.83254 -0.267517,0.28062 -0.530929,0.56504 -0.791703,0.85204 -0.260775,0.28699 -0.518303,0.57641 -0.772211,0.86966 -0.253908,0.29322 -0.504879,0.59074 -0.751791,0.89009 -0.246913,0.29933 -0.489725,0.60052 -0.729514,0.90585 -0.239795,0.30533 -0.476552,0.61418 -0.709099,0.92536 -0.232552,0.3112 -0.46165,0.62512 -0.686822,0.94206 -0.225176,0.31693 -0.445943,0.63623 -0.66362,0.95876 -0.217679,0.32256 -0.432215,0.64839 -0.642271,0.97641 -0.210051,0.32803 -0.41584,0.6588 -0.61814,0.99217 -0.202309,0.33339 -0.400504,0.66935 -0.594939,1.00796 -0.194432,0.33864 -0.385303,0.68001 -0.571731,1.02374 -0.186429,0.34373 -0.368371,0.68989 -0.546673,1.03858 -0.178313,0.34871 -0.353421,0.69989 -0.523469,1.05345 -0.170053,0.35357 -0.33581,0.70906 -0.497485,1.06735 -0.16168,0.3583 -0.318322,0.71932 -0.471495,1.08221 -0.153164,0.36292 -0.302821,0.72875 -0.447359,1.09614 -0.144549,0.36737 -0.284664,0.73646 -0.420449,1.10819 -0.135781,0.37173 -0.266625,0.74522 -0.393529,1.12119 -0.126908,0.37595 -0.249644,0.75413 -0.367543,1.13419 -0.117895,0.38004 -0.231864,0.76221 -0.340628,1.14625 -0.108771,0.38403 -0.212351,0.77043 -0.311856,1.15831 -0.0995,0.38789 -0.193893,0.77784 -0.284006,1.16946 -0.09013,0.39159 -0.175551,0.78445 -0.25617,1.17966 -0.08061,0.3952 -0.156429,0.79213 -0.227392,1.19081 -0.07098,0.39868 -0.13741,0.79898 -0.198622,1.201 -0.06121,0.40203 -0.11759,0.80598 -0.168922,1.21122 -0.05133,0.40525 -0.09699,0.81218 -0.138294,1.22051 -0.0413,0.40833 -0.07836,0.81753 -0.109516,1.22885 -0.03118,0.4113 -0.05706,0.82399 -0.07797,1.23814 -0.02091,0.41415 -0.03681,0.83055 -0.04733,1.24742 -0.01059,0.41688 -0.01578,0.83446 -0.01578,1.25391 0,0.41947 0.0052,0.83798 0.01578,1.25484 0.0106,0.41687 0.02643,0.83234 0.04733,1.24649 0.02091,0.41416 0.04678,0.82682 0.07797,1.23814 0.03116,0.41131 0.06821,0.82143 0.109516,1.22978 0.04131,0.40834 0.08696,0.81526 0.138294,1.22051 0.05133,0.40523 0.107711,0.80826 0.168922,1.21029 0.06121,0.40201 0.127655,0.80234 0.198622,1.20101 0.07099,0.39868 0.146783,0.79559 0.227392,1.1908 0.08061,0.3952 0.166047,0.789 0.25617,1.18059 0.09011,0.39162 0.184503,0.78156 0.284006,1.16946 0.0995,0.38787 0.203094,0.77428 0.311856,1.15831 0.108769,0.38403 0.222733,0.76618 0.340628,1.14625 0.117893,0.38006 0.240635,0.75731 0.367543,1.13326 0.126909,0.37595 0.257743,0.75039 0.393529,1.12212 0.13578,0.3717 0.275909,0.74081 0.420449,1.10819 0.144543,0.36739 0.29419,0.73232 0.447359,1.0952 0.153169,0.36292 0.30982,0.72393 0.471495,1.08222 0.16168,0.35829 0.327432,0.71472 0.497485,1.06828 0.170048,0.35357 0.345161,0.70378 0.523469,1.05251 0.178292,0.34871 0.360244,0.69579 0.546673,1.03952 0.186428,0.34371 0.377299,0.6851 0.571731,1.02374 0.194435,0.3386 0.39263,0.67363 0.594939,1.00702 0.2023,0.33337 0.408089,0.66415 0.61814,0.99219 0.210056,0.32801 0.424592,0.65386 0.642271,0.97639 0.217677,0.32256 0.438444,0.64184 0.66362,0.95877 0.225172,0.31692 0.45427,0.63086 0.686822,0.94207 0.232547,0.31117 0.469304,0.62001 0.709099,0.92534 0.239789,0.30534 0.482601,0.60747 0.729514,0.90679 0.246912,0.29936 0.497883,0.59594 0.751791,0.88917 0.253908,0.29322 0.511436,0.58359 0.772211,0.87059 0.260774,0.28699 0.524186,0.57139 0.791703,0.85202 0.267518,0.28064 0.537983,0.55749 0.81212,0.83162 0.274137,0.27413 0.551914,0.54553 0.832543,0.81305 0.280624,0.26752 0.565035,0.53092 0.852026,0.7917 0.286997,0.26077 0.576436,0.51831 0.869667,0.77222 0.293232,0.2539 0.590739,0.50489 0.890086,0.75178 0.299347,0.24693 0.600529,0.48973 0.905863,0.72952 0.305335,0.2398 0.614162,0.47656 0.925356,0.7091 0.311198,0.23255 0.625125,0.46072 0.942059,0.68589 0.316935,0.2252 0.637148,0.44688 0.959695,0.66455 0.322542,0.21768 0.647446,0.43222 0.975472,0.64227 0.32803,0.21005 0.658792,0.4149 0.992178,0.61721 0.333391,0.20232 0.669339,0.40143 1.007961,0.59587 0.338618,0.19442 0.680007,0.38531 1.023734,0.57173 0.343731,0.18643 0.689876,0.36838 1.038588,0.54668 0.348707,0.17835 0.699876,0.35249 1.053439,0.52254 0.353563,0.17009 0.709065,0.33579 1.067357,0.49748 0.358297,0.16164 0.71931,0.31926 1.082212,0.47242 0.362897,0.1532 0.728754,0.30191 1.09613,0.44644 0.367373,0.14457 0.736467,0.28559 1.108197,0.42137 0.371731,0.13579 0.745234,0.26569 1.121189,0.3926 0.37596,0.12698 0.754129,0.25058 1.134185,0.36847 0.380057,0.11783 0.762218,0.23094 1.146252,0.33971 0.384033,0.10883 0.770438,0.21235 1.158316,0.31185 0.387882,0.0995 0.777851,0.19481 1.169456,0.28493 0.391607,0.0901 0.784456,0.17554 1.179662,0.25617 0.395206,0.0807 0.792123,0.15645 1.190801,0.2274 0.398675,0.0709 0.79899,0.13741 1.20101,0.19861 0.402025,0.0613 0.805974,0.11756 1.211221,0.16893 0.405247,0.0514 0.812171,0.0969 1.220503,0.1383 0.40833,0.0413 0.81849,0.0782 1.22978,0.10951 0.41131,0.0312 0.82398,0.057 1.23813,0.0779 0.41414,0.0211 0.82963,0.036 1.2465,0.0464 0.41686,0.0108 0.83446,0.0167 1.25391,0.0167 0.41947,0 0.83798,-0.006 1.25483,-0.0167 0.41688,-0.0108 0.83235,-0.0255 1.2465,-0.0464 0.41414,-0.0209 0.82682,-0.0467 1.23814,-0.0779 0.41129,-0.0312 0.8205,-0.0682 1.22886,-0.10951 0.40833,-0.0413 0.81618,-0.087 1.22143,-0.1383 0.40523,-0.0514 0.80825,-0.10767 1.21029,-0.16893 0.40201,-0.0612 0.80233,-0.12771 1.20101,-0.19861 0.39866,-0.0709 0.79652,-0.14676 1.19172,-0.2274 0.39521,-0.0807 0.78808,-0.16602 1.17967,-0.25617 0.39161,-0.0901 0.78156,-0.18543 1.16946,-0.28493 0.38787,-0.0995 0.77428,-0.20309 1.15831,-0.31185 0.38403,-0.10884 0.76619,-0.22181 1.14626,-0.33971 0.38005,-0.11782 0.75821,-0.24158 1.13417,-0.36847 0.37596,-0.12698 0.74947,-0.25681 1.1212,-0.3926 0.37172,-0.13578 0.74081,-0.27683 1.10819,-0.42137 0.36736,-0.14459 0.73324,-0.29327 1.09614,-0.44644 0.36289,-0.1532 0.72298,-0.31076 1.08128,-0.47242 0.35829,-0.16165 0.71472,-0.32743 1.06828,-0.49748 0.35357,-0.17009 0.70381,-0.34423 1.05251,-0.52254 0.34873,-0.17836 0.69579,-0.36025 1.03952,-0.54668 0.34372,-0.18642 0.6842,-0.37731 1.0228,-0.57173 0.33863,-0.19444 0.67458,-0.39355 1.00796,-0.59587 0.33339,-0.20231 0.66415,-0.40716 0.99218,-0.61721 0.32803,-0.21005 0.65387,-0.42459 0.9764,-0.64227 0.32256,-0.21767 0.64276,-0.43935 0.9597,-0.66455 0.31693,-0.22517 0.62995,-0.45334 0.94113,-0.68589 0.31121,-0.23254 0.62002,-0.4693 0.92535,-0.7091 0.30533,-0.23979 0.60745,-0.48259 0.9068,-0.72952 0.29934,-0.24689 0.59591,-0.49788 0.88915,-0.75178 0.29323,-0.25391 0.58361,-0.51145 0.8706,-0.77222 0.28699,-0.26078 0.57047,-0.52418 0.8511,-0.7917 0.28062,-0.26752 0.55841,-0.53892 0.83254,-0.81305 0.27413,-0.27413 0.54459,-0.55098 0.81212,-0.83162 0.26751,-0.28063 0.53184,-0.56503 0.79263,-0.85202 0.26077,-0.287 0.5183,-0.57737 0.77222,-0.87059 0.2539,-0.29323 0.50488,-0.58981 0.75178,-0.88917 0.24693,-0.29932 0.48973,-0.60145 0.72952,-0.90679 0.23979,-0.30533 0.47564,-0.61417 0.70817,-0.92534 0.23255,-0.31121 0.46258,-0.62515 0.68776,-0.94207 0.22516,-0.31693 0.44593,-0.63621 0.6636,-0.95877 0.21769,-0.32253 0.43128,-0.64838 0.64135,-0.97639 0.21004,-0.32804 0.41583,-0.65882 0.61814,-0.99219 0.20231,-0.33339 0.40144,-0.66842 0.59587,-1.00702 0.19444,-0.33864 0.38436,-0.68003 0.5708,-1.02374 0.18643,-0.34373 0.36931,-0.69081 0.54761,-1.03952 0.17835,-0.34873 0.35249,-0.69894 0.52254,-1.05251 0.17008,-0.35356 0.33581,-0.70999 0.49748,-1.06828 0.16164,-0.35829 0.31925,-0.7193 0.47242,-1.08222 0.1532,-0.36288 0.30188,-0.72781 0.44644,-1.0952 0.14458,-0.36738 0.28559,-0.73649 0.42137,-1.10819 0.13578,-0.37173 0.26662,-0.74617 0.39353,-1.12212 0.12699,-0.37595 0.24873,-0.7532 0.36662,-1.13326 0.11782,-0.38007 0.23185,-0.76222 0.34063,-1.14625 0.10883,-0.38403 0.21233,-0.77044 0.31184,-1.15831 0.0995,-0.3879 0.19484,-0.77784 0.28494,-1.16946 0.0901,-0.39159 0.17552,-0.78539 0.25617,-1.18059 0.0807,-0.39521 0.15645,-0.79212 0.22739,-1.1908 0.0709,-0.39867 0.13741,-0.799 0.19863,-1.20101 0.0612,-0.40203 0.11755,-0.80506 0.16892,-1.21029 0.0514,-0.40525 0.0969,-0.81217 0.13829,-1.22051 0.0413,-0.40835 0.0782,-0.81847 0.10952,-1.22978 0.0312,-0.41132 0.057,-0.82398 0.0779,-1.23814 0.0209,-0.41415 0.036,-0.82962 0.0464,-1.24649 0.0108,-0.41686 0.0167,-0.83537 0.0167,-1.25484 0,-0.41945 -0.006,-0.83703 -0.0167,-1.25391 -0.0108,-0.41687 -0.0255,-0.83327 -0.0464,-1.24742 -0.0208,-0.41415 -0.0467,-0.82684 -0.0779,-1.23814 -0.0312,-0.41132 -0.0682,-0.82052 -0.10952,-1.22885 -0.0413,-0.40833 -0.087,-0.81526 -0.13829,-1.22051 -0.0514,-0.40524 -0.10768,-0.80919 -0.16892,-1.21122 -0.0613,-0.40202 -0.12772,-0.80232 -0.19863,-1.201 -0.0709,-0.39868 -0.14674,-0.79561 -0.22739,-1.19081 -0.0807,-0.39521 -0.16601,-0.78807 -0.25617,-1.17966 -0.0901,-0.39162 -0.18543,-0.78157 -0.28494,-1.16946 -0.0995,-0.38788 -0.20308,-0.77428 -0.31184,-1.15831 -0.10885,-0.38404 -0.22274,-0.76621 -0.34063,-1.14625 -0.11782,-0.38006 -0.23973,-0.75824 -0.36662,-1.13419 -0.12698,-0.37597 -0.25775,-0.74946 -0.39353,-1.12119 -0.13578,-0.37173 -0.27683,-0.74082 -0.42137,-1.10819 -0.14459,-0.36739 -0.29328,-0.73322 -0.44644,-1.09614 -0.1532,-0.36289 -0.31074,-0.72391 -0.47242,-1.08221 -0.16165,-0.35829 -0.32742,-0.71378 -0.49748,-1.06735 -0.17009,-0.35356 -0.34423,-0.70474 -0.52254,-1.05345 -0.17836,-0.34869 -0.36118,-0.69485 -0.54761,-1.03858 -0.18644,-0.34373 -0.37636,-0.6851 -0.5708,-1.02374 -0.19443,-0.33861 -0.39356,-0.67457 -0.59587,-1.00796 -0.20231,-0.33337 -0.4081,-0.66414 -0.61814,-0.99217 -0.21007,-0.32802 -0.42366,-0.65385 -0.64135,-0.97641 -0.21767,-0.32253 -0.43844,-0.64183 -0.6636,-0.95876 -0.22518,-0.31694 -0.45521,-0.63086 -0.68776,-0.94206 -0.23253,-0.31118 -0.46838,-0.62003 -0.70817,-0.92536 -0.23979,-0.30533 -0.48259,-0.60652 -0.72952,-0.90585 -0.2469,-0.29935 -0.49788,-0.59687 -0.75178,-0.89009 -0.25392,-0.29325 -0.51145,-0.58267 -0.77222,-0.86966 -0.26079,-0.287 -0.52512,-0.57142 -0.79263,-0.85204 -0.26753,-0.28063 -0.53799,-0.55839 -0.81212,-0.83254 -0.27413,-0.27413 -0.55192,-0.5446 -0.83254,-0.81213 -0.28063,-0.26751 -0.56411,-0.53093 -0.8511,-0.79169 -0.28699,-0.26077 -0.57737,-0.5183 -0.8706,-0.77222 -0.29324,-0.2539 -0.58981,-0.50487 -0.88915,-0.75178 -0.29935,-0.24691 -0.60147,-0.48972 -0.9068,-0.72952 -0.30533,-0.2398 -0.61414,-0.47655 -0.92535,-0.7091 -0.31118,-0.23253 -0.6242,-0.46165 -0.94113,-0.68683 -0.31694,-0.22518 -0.63714,-0.44593 -0.9597,-0.66361 -0.32253,-0.21766 -0.64837,-0.43222 -0.9764,-0.64227 -0.32803,-0.21007 -0.65879,-0.41584 -0.99218,-0.61815 -0.33338,-0.2023 -0.66933,-0.40048 -1.00796,-0.59494 -0.3386,-0.19441 -0.67908,-0.3853 -1.0228,-0.57172 -0.34373,-0.18643 -0.69079,-0.36836 -1.03952,-0.54667 -0.3487,-0.17836 -0.69894,-0.3525 -1.05251,-0.52255 -0.35356,-0.17009 -0.70999,-0.33673 -1.06828,-0.49841 -0.3583,-0.16164 -0.71839,-0.31925 -1.08128,-0.47243 -0.3629,-0.15319 -0.72878,-0.3019 -1.09614,-0.44642 -0.36738,-0.14459 -0.73647,-0.28467 -1.10819,-0.42045 -0.37173,-0.13579 -0.74524,-0.26662 -1.1212,-0.39353 -0.37596,-0.12699 -0.75412,-0.24965 -1.13417,-0.36754 -0.38007,-0.11783 -0.76223,-0.23188 -1.14626,-0.34063 -0.38403,-0.10884 -0.77044,-0.21235 -1.15831,-0.31185 -0.3879,-0.0995 -0.77785,-0.19389 -1.16946,-0.28401 -0.39159,-0.0901 -0.78446,-0.17554 -1.17967,-0.25617 -0.3952,-0.0807 -0.79306,-0.15645 -1.19172,-0.2274 -0.39868,-0.0709 -0.799,-0.13739 -1.20101,-0.19861 -0.40204,-0.0613 -0.80506,-0.11756 -1.21029,-0.16893 -0.40525,-0.0514 -0.8131,-0.0979 -1.22143,-0.13922 -0.40836,-0.0413 -0.81757,-0.0773 -1.22886,-0.10859 -0.41132,-0.0311 -0.824,-0.0581 -1.23814,-0.0789 -0.41415,-0.0208 -0.82962,-0.0358 -1.2465,-0.0464 -0.41685,-0.0108 -0.83536,-0.0167 -1.25483,-0.0167 z m 9.2e-4,26.72945 a 21.782196,21.782196 0 0 1 0.5606,0.007 21.782196,21.782196 0 0 1 0.5606,0.0214 21.782196,21.782196 0 0 1 0.55966,0.0362 21.782196,21.782196 0 0 1 0.55875,0.0502 21.782196,21.782196 0 0 1 0.55688,0.065 21.782196,21.782196 0 0 1 0.55502,0.0799 21.782196,21.782196 0 0 1 0.55318,0.0928 21.782196,21.782196 0 0 1 0.55038,0.10767 21.782196,21.782196 0 0 1 0.54761,0.12159 21.782196,21.782196 0 0 1 0.54388,0.13643 21.782196,21.782196 0 0 1 0.54111,0.14943 21.782196,21.782196 0 0 1 0.53645,0.16428 21.782196,21.782196 0 0 1 0.53183,0.17727 21.782196,21.782196 0 0 1 0.52718,0.1912 21.782196,21.782196 0 0 1 0.52254,0.20419 21.782196,21.782196 0 0 1 0.51698,0.21811 21.782196,21.782196 0 0 1 0.51048,0.23111 21.782196,21.782196 0 0 1 0.50491,0.2441 21.782196,21.782196 0 0 1 0.49841,0.2571 21.782196,21.782196 0 0 1 0.49191,0.27009 21.782196,21.782196 0 0 1 0.48448,0.28308 21.782196,21.782196 0 0 1 0.47707,0.29422 21.782196,21.782196 0 0 1 0.46963,0.30721 21.782196,21.782196 0 0 1 0.46129,0.31928 21.782196,21.782196 0 0 1 0.45293,0.33135 21.782196,21.782196 0 0 1 0.44365,0.34155 21.782196,21.782196 0 0 1 0.4353,0.35455 21.782196,21.782196 0 0 1 0.42695,0.36476 21.782196,21.782196 0 0 1 0.4158,0.37496 21.782196,21.782196 0 0 1 0.40652,0.38704 21.782196,21.782196 0 0 1 0.39724,0.39631 21.782196,21.782196 0 0 1 0.38611,0.40653 21.782196,21.782196 0 0 1 0.37589,0.41674 21.782196,21.782196 0 0 1 0.36476,0.42601 21.782196,21.782196 0 0 1 0.35362,0.4353 21.782196,21.782196 0 0 1 0.34249,0.44365 21.782196,21.782196 0 0 1 0.33042,0.45292 21.782196,21.782196 0 0 1 0.31928,0.46129 21.782196,21.782196 0 0 1 0.30721,0.46963 21.782196,21.782196 0 0 1 0.29515,0.47707 21.782196,21.782196 0 0 1 0.28216,0.48449 21.782196,21.782196 0 0 1 0.27008,0.49192 21.782196,21.782196 0 0 1 0.2571,0.49841 21.782196,21.782196 0 0 1 0.2441,0.5049 21.782196,21.782196 0 0 1 0.2311,0.51141 21.782196,21.782196 0 0 1 0.21811,0.51604 21.782196,21.782196 0 0 1 0.20513,0.52254 21.782196,21.782196 0 0 1 0.19119,0.52718 21.782196,21.782196 0 0 1 0.17727,0.53276 21.782196,21.782196 0 0 1 0.16336,0.53646 21.782196,21.782196 0 0 1 0.14943,0.54017 21.782196,21.782196 0 0 1 0.13643,0.5439 21.782196,21.782196 0 0 1 0.12159,0.5476 21.782196,21.782196 0 0 1 0.10766,0.55039 21.782196,21.782196 0 0 1 0.0938,0.55316 21.782196,21.782196 0 0 1 0.0789,0.55503 21.782196,21.782196 0 0 1 0.065,0.55781 21.782196,21.782196 0 0 1 0.0502,0.55874 21.782196,21.782196 0 0 1 0.0362,0.55966 21.782196,21.782196 0 0 1 0.0223,0.55967 21.782196,21.782196 0 0 1 0.006,0.56153 21.782196,21.782196 0 0 1 -0.0603,1.62796 21.782196,21.782196 0 0 1 -0.18285,1.61867 21.782196,21.782196 0 0 1 -0.30257,1.60011 21.782196,21.782196 0 0 1 -0.42138,1.57319 21.782196,21.782196 0 0 1 -0.53831,1.53793 21.782196,21.782196 0 0 1 -0.65156,1.49244 21.782196,21.782196 0 0 1 -0.76107,1.44047 21.782196,21.782196 0 0 1 -0.86689,1.37921 21.782196,21.782196 0 0 1 -0.96711,1.31054 21.782196,21.782196 0 0 1 -1.06272,1.23443 21.782196,21.782196 0 0 1 -1.15183,1.15181 21.782196,21.782196 0 0 1 -1.23442,1.06271 21.782196,21.782196 0 0 1 -1.31053,0.96713 21.782196,21.782196 0 0 1 -1.37921,0.86689 21.782196,21.782196 0 0 1 -1.44048,0.76106 21.782196,21.782196 0 0 1 -1.49244,0.65155 21.782196,21.782196 0 0 1 -1.53792,0.53833 21.782196,21.782196 0 0 1 -1.5732,0.42137 21.782196,21.782196 0 0 1 -1.60104,0.30258 21.782196,21.782196 0 0 1 -1.61867,0.18283 21.782196,21.782196 0 0 1 -1.62703,0.0603 21.782196,21.782196 0 0 1 -1.62795,-0.0603 21.782196,21.782196 0 0 1 -1.61868,-0.18283 21.782196,21.782196 0 0 1 -1.60103,-0.30258 21.782196,21.782196 0 0 1 -1.573194,-0.42137 21.782196,21.782196 0 0 1 -1.536994,-0.53833 21.782196,21.782196 0 0 1 -1.493376,-0.65155 21.782196,21.782196 0 0 1 -1.44047,-0.76106 21.782196,21.782196 0 0 1 -1.379212,-0.86689 21.782196,21.782196 0 0 1 -1.310534,-0.96713 21.782196,21.782196 0 0 1 -1.234421,-1.06271 21.782196,21.782196 0 0 1 -1.151821,-1.15181 21.782196,21.782196 0 0 1 -1.062719,-1.23443 21.782196,21.782196 0 0 1 -0.967122,-1.31054 21.782196,21.782196 0 0 1 -0.866877,-1.37921 21.782196,21.782196 0 0 1 -0.761077,-1.44047 21.782196,21.782196 0 0 1 -0.651551,-1.49244 21.782196,21.782196 0 0 1 -0.537393,-1.53793 21.782196,21.782196 0 0 1 -0.422301,-1.57319 21.782196,21.782196 0 0 1 -0.302574,-1.60011 21.782196,21.782196 0 0 1 -0.181914,-1.61867 21.782196,21.782196 0 0 1 -0.06126,-1.62796 21.782196,21.782196 0 0 1 0.06126,-1.62795 21.782196,21.782196 0 0 1 0.181914,-1.61868 21.782196,21.782196 0 0 1 0.302574,-1.60104 21.782196,21.782196 0 0 1 0.422301,-1.57319 21.782196,21.782196 0 0 1 0.537393,-1.537 21.782196,21.782196 0 0 1 0.651551,-1.49337 21.782196,21.782196 0 0 1 0.761077,-1.44047 21.782196,21.782196 0 0 1 0.866877,-1.37921 21.782196,21.782196 0 0 1 0.967122,-1.31054 21.782196,21.782196 0 0 1 1.062719,-1.23443 21.782196,21.782196 0 0 1 1.151821,-1.15181 21.782196,21.782196 0 0 1 1.234421,-1.06271 21.782196,21.782196 0 0 1 1.310534,-0.96713 21.782196,21.782196 0 0 1 1.379212,-0.86689 21.782196,21.782196 0 0 1 1.44047,-0.76106 21.782196,21.782196 0 0 1 1.493376,-0.65156 21.782196,21.782196 0 0 1 1.536994,-0.53739 21.782196,21.782196 0 0 1 1.573194,-0.4223 21.782196,21.782196 0 0 1 1.60103,-0.30258 21.782196,21.782196 0 0 1 1.61868,-0.18191 21.782196,21.782196 0 0 1 1.62795,-0.0612 z" />
    <path
       id="path4614"
       style="fill:#000000;fill-opacity:1;fill-rule:evenodd;stroke:none;stroke-width:12.1317;stroke-linejoin:round;stroke-miterlimit:4;stroke-dasharray:none;stroke-opacity:1"
       d="M 0,0 V 288.10339 H 210.03675 V 0 Z m 105.01791,19.460273 c 23.5895,0 42.82893,19.238528 42.82893,42.828012 0,23.589484 -19.23943,42.828005 -42.82893,42.828005 -23.589479,0 -42.828007,-19.238521 -42.828007,-42.828005 0,-23.589483 19.238528,-42.828011 42.828007,-42.828012 z m 0,113.614327 c 0.59566,0 1.18992,0.007 1.78202,0.0223 0.59211,0.0151 1.18253,0.0378 1.77089,0.0677 0.58836,0.0299 1.17439,0.0677 1.75882,0.11231 0.58444,0.0447 1.16736,0.0958 1.74769,0.15499 0.58033,0.0591 1.15865,0.12611 1.73469,0.19955 0.57604,0.0734 1.1492,0.15373 1.72076,0.24133 0.57157,0.0876 1.14086,0.18245 1.70778,0.284 0.56691,0.10153 1.13179,0.20952 1.69386,0.32485 0.56206,0.11532 1.12194,0.23769 1.67899,0.36661 0.55706,0.12893 1.11138,0.26419 1.66323,0.40652 0.55185,0.14234 1.10098,0.2918 1.64745,0.44737 0.54646,0.15557 1.08983,0.31773 1.63074,0.48634 0.5409,0.16862 1.07887,0.34386 1.61403,0.52533 0.53515,0.18149 1.0681,0.36922 1.59733,0.56339 0.52921,0.19416 1.05472,0.39477 1.57782,0.60143 0.52311,0.20666 1.04339,0.41958 1.56021,0.63856 0.5168,0.21897 1.03038,0.44363 1.5407,0.67475 0.51034,0.23112 1.01756,0.46882 1.52123,0.71189 0.50367,0.24307 1.00397,0.49138 1.50079,0.74622 0.49683,0.25484 0.99058,0.51599 1.48038,0.78242 0.48981,0.26643 0.97551,0.53799 1.45811,0.81583 0.48259,0.27783 0.96156,0.56205 1.43675,0.85111 0.47521,0.28905 0.94687,0.58348 1.41449,0.88359 0.46763,0.30009 0.93141,0.60511 1.39128,0.91606 0.45987,0.31096 0.91614,0.62786 1.36807,0.94949 0.45193,0.32163 0.89921,0.64799 1.34302,0.98011 0.44381,0.33212 0.88338,0.67017 1.31888,1.0126 0.43551,0.34244 0.86681,0.68974 1.29383,1.0423 0.42702,0.35257 0.85042,0.71042 1.26877,1.07293 0.41835,0.36251 0.83234,0.72943 1.24184,1.10169 0.4095,0.37228 0.81447,0.74955 1.21494,1.13141 0.40047,0.38185 0.79584,0.76799 1.18709,1.15924 0.39124,0.39125 0.77832,0.78755 1.16017,1.18801 0.38185,0.40048 0.75913,0.80544 1.1314,1.21494 0.37227,0.4095 0.7392,0.8235 1.10171,1.24185 0.3625,0.41835 0.72035,0.84082 1.07292,1.26784 0.35256,0.42701 0.69987,0.85832 1.0423,1.29383 0.34244,0.4355 0.67955,0.87507 1.01167,1.31888 0.33212,0.4438 0.65942,0.89201 0.98104,1.34394 0.32163,0.45193 0.6376,0.90821 0.94855,1.36807 0.31096,0.45988 0.61691,0.92366 0.91701,1.39129 0.30009,0.46762 0.59453,0.93928 0.88359,1.41448 0.28905,0.4752 0.57233,0.95417 0.85017,1.43676 0.27783,0.48259 0.55034,0.96831 0.81677,1.4581 0.26642,0.4898 0.52665,0.98356 0.78149,1.48038 0.25483,0.49683 0.50408,0.99714 0.74715,1.5008 0.24306,0.50368 0.48076,1.01089 0.71188,1.52122 0.23111,0.51033 0.45577,1.0239 0.67475,1.54071 0.21899,0.51681 0.43191,1.03617 0.63857,1.55927 0.20666,0.52311 0.40727,1.04955 0.60143,1.57877 0.19416,0.52922 0.3819,1.06125 0.56337,1.5964 0.18149,0.53515 0.35672,1.07312 0.52533,1.61402 0.16862,0.54092 0.33078,1.08521 0.48635,1.63167 0.15556,0.54647 0.3041,1.09559 0.44644,1.64745 0.14233,0.55185 0.27852,1.10616 0.40744,1.66322 0.12892,0.55706 0.25129,1.11693 0.36662,1.67901 0.11533,0.56207 0.2233,1.12601 0.32484,1.69292 0.10153,0.56691 0.19643,1.13621 0.28402,1.70777 0.0876,0.57157 0.16786,1.14567 0.24131,1.72171 0.0735,0.57603 0.1395,1.15435 0.19863,1.73468 0.0591,0.58033 0.11131,1.16232 0.15592,1.74675 0.0447,0.58444 0.0824,1.1714 0.11231,1.75976 0.0299,0.58835 0.0518,1.17879 0.0668,1.77088 0.0151,0.5921 0.0232,1.18544 0.0232,1.7811 0,0.59567 -0.008,1.18992 -0.0232,1.78203 -0.0151,0.5921 -0.0369,1.18253 -0.0668,1.77089 -0.0299,0.58836 -0.0676,1.17438 -0.11231,1.75882 -0.0446,0.58443 -0.0968,1.16736 -0.15592,1.74768 -0.0591,0.58032 -0.12518,1.15865 -0.19863,1.73469 -0.0734,0.57604 -0.15372,1.1492 -0.24131,1.72077 -0.0876,0.57156 -0.18246,1.14086 -0.28402,1.70777 -0.10152,0.56692 -0.20951,1.13178 -0.32484,1.69385 -0.11533,0.56208 -0.2377,1.12196 -0.36662,1.67901 -0.12892,0.55705 -0.26511,1.11138 -0.40744,1.66322 -0.14234,0.55185 -0.29088,1.10098 -0.44644,1.64744 -0.15557,0.54647 -0.31773,1.08985 -0.48635,1.63075 -0.16861,0.5409 -0.34384,1.0798 -0.52533,1.61496 -0.18147,0.53515 -0.36921,1.06717 -0.56337,1.5964 -0.19416,0.52921 -0.39477,1.05565 -0.60143,1.57876 -0.20666,0.5231 -0.41958,1.04246 -0.63857,1.55927 -0.21898,0.51682 -0.44364,1.03037 -0.67475,1.54071 -0.23112,0.51033 -0.46882,1.01755 -0.71188,1.52122 -0.24307,0.50367 -0.49232,1.00397 -0.74715,1.5008 -0.25484,0.49682 -0.51507,0.99058 -0.78149,1.48038 -0.26643,0.4898 -0.53894,0.97552 -0.81677,1.45811 -0.27784,0.48259 -0.56112,0.96155 -0.85017,1.43676 -0.28906,0.47519 -0.5835,0.94685 -0.88359,1.41448 -0.3001,0.46762 -0.60605,0.93141 -0.91701,1.39127 -0.31095,0.45988 -0.62692,0.91615 -0.94855,1.36809 -0.32162,0.45193 -0.64892,0.8992 -0.98104,1.34301 -0.33212,0.4438 -0.66923,0.88337 -1.01167,1.31888 -0.34243,0.43551 -0.68974,0.86681 -1.0423,1.29383 -0.35257,0.42701 -0.71042,0.85041 -1.07292,1.26876 -0.36251,0.41835 -0.72944,0.83235 -1.10171,1.24185 -0.37227,0.40949 -0.74955,0.81447 -1.1314,1.21493 -0.38185,0.40047 -0.76893,0.79584 -1.16017,1.18709 -0.39125,0.39125 -0.78662,0.77832 -1.18709,1.16017 -0.40047,0.38186 -0.80544,0.75914 -1.21494,1.13141 -0.4095,0.37226 -0.82349,0.73919 -1.24184,1.10169 -0.41835,0.36251 -0.84175,0.72037 -1.26877,1.07292 -0.42702,0.35258 -0.85832,0.69988 -1.29383,1.04231 -0.4355,0.34243 -0.87507,0.67955 -1.31888,1.01167 -0.44381,0.33213 -0.89109,0.65941 -1.34302,0.98105 -0.45193,0.32162 -0.9082,0.63759 -1.36807,0.94855 -0.45987,0.31095 -0.92365,0.6169 -1.39128,0.917 -0.46762,0.30009 -0.93928,0.59454 -1.41449,0.88359 -0.47519,0.28905 -0.95416,0.57235 -1.43675,0.85017 -0.4826,0.27784 -0.9683,0.55034 -1.45811,0.81676 -0.4898,0.26643 -0.98355,0.52759 -1.48038,0.78243 -0.49682,0.25484 -0.99712,0.50315 -1.50079,0.74622 -0.50367,0.24307 -1.01089,0.48076 -1.52123,0.71188 -0.51032,0.23112 -1.0239,0.45578 -1.5407,0.67476 -0.51682,0.21898 -1.0371,0.4319 -1.56021,0.63856 -0.5231,0.20666 -1.04861,0.40727 -1.57782,0.60143 -0.52923,0.19416 -1.06218,0.3819 -1.59733,0.56338 -0.53516,0.18148 -1.07313,0.35671 -1.61403,0.52533 -0.54091,0.16861 -1.08428,0.33078 -1.63074,0.48634 -0.54647,0.15557 -1.0956,0.3041 -1.64745,0.44644 -0.55185,0.14233 -1.10617,0.27852 -1.66323,0.40744 -0.55705,0.12894 -1.11693,0.2513 -1.67899,0.36663 -0.56207,0.11533 -1.12695,0.22329 -1.69386,0.32485 -0.56692,0.10152 -1.13621,0.1964 -1.70778,0.284 -0.57156,0.0876 -1.14472,0.16787 -1.72076,0.24131 -0.57604,0.0735 -1.15436,0.14043 -1.73469,0.19956 -0.58033,0.0591 -1.16325,0.11038 -1.74769,0.155 -0.58443,0.0446 -1.17046,0.0824 -1.75882,0.1123 -0.58836,0.0299 -1.17878,0.0527 -1.77089,0.0677 -0.5921,0.0151 -1.18636,0.0223 -1.78202,0.0223 -0.59567,0 -1.189,-0.007 -1.7811,-0.0223 -0.5921,-0.0151 -1.18253,-0.0378 -1.77089,-0.0677 -0.58835,-0.0299 -1.17531,-0.0676 -1.759744,-0.1123 -0.584432,-0.0447 -1.166428,-0.0959 -1.746755,-0.155 -0.580328,-0.0591 -1.158654,-0.12611 -1.73469,-0.19956 -0.576036,-0.0734 -1.150129,-0.15372 -1.721693,-0.24131 -0.571569,-0.0876 -1.140867,-0.18246 -1.707775,-0.284 -0.566912,-0.10153 -1.130855,-0.20952 -1.692924,-0.32485 -0.562074,-0.11533 -1.121949,-0.23769 -1.679005,-0.36663 -0.557052,-0.12892 -1.111372,-0.26511 -1.663224,-0.40744 -0.551853,-0.14234 -1.100973,-0.29087 -1.647442,-0.44644 -0.546469,-0.15556 -1.090766,-0.31773 -1.63167,-0.48634 -0.540899,-0.16862 -1.078882,-0.34385 -1.614031,-0.52533 -0.535153,-0.18148 -1.067176,-0.36922 -1.5964,-0.56338 -0.529218,-0.19416 -1.055652,-0.39477 -1.57876,-0.60143 -0.523107,-0.20666 -1.043393,-0.41958 -1.560203,-0.63856 -0.516807,-0.21898 -1.030377,-0.44364 -1.540707,-0.67476 -0.510334,-0.23112 -1.016624,-0.46881 -1.520291,-0.71188 -0.503671,-0.24307 -1.003974,-0.49138 -1.500802,-0.74622 -0.496824,-0.25484 -0.990579,-0.516 -1.480379,-0.78243 -0.489801,-0.26642 -0.97644,-0.53892 -1.459032,-0.81676 -0.482591,-0.27782 -0.960631,-0.56112 -1.435832,-0.85017 -0.475198,-0.28905 -0.946855,-0.5835 -1.414482,-0.88359 -0.467627,-0.3001 -0.93141,-0.60605 -1.391277,-0.917 -0.459872,-0.31096 -0.916147,-0.62693 -1.368077,-0.94855 -0.451932,-0.32164 -0.900138,-0.64892 -1.343948,-0.98105 -0.443804,-0.33212 -0.883375,-0.66924 -1.318884,-1.01167 -0.435503,-0.34243 -0.866801,-0.68973 -1.293821,-1.04231 -0.427021,-0.35255 -0.84949,-0.71041 -1.267838,-1.07292 -0.418353,-0.3625 -0.832348,-0.72943 -1.241848,-1.10169 -0.4095,-0.37227 -0.814466,-0.74955 -1.214933,-1.13141 -0.400466,-0.38185 -0.796769,-0.76892 -1.188017,-1.16017 -0.391251,-0.39125 -0.777395,-0.78662 -1.159248,-1.18709 -0.381848,-0.40046 -0.759128,-0.80544 -1.131396,-1.21493 -0.372272,-0.4095 -0.740125,-0.8235 -1.102632,-1.24185 -0.362507,-0.41835 -0.719434,-0.84175 -1.072,-1.26876 -0.35256,-0.42702 -0.699865,-0.85832 -1.042299,-1.29383 -0.342434,-0.43551 -0.680473,-0.87508 -1.012599,-1.31888 -0.332122,-0.44381 -0.65848,-0.89108 -0.980114,-1.34301 -0.321629,-0.45194 -0.638531,-0.90821 -0.949482,-1.36809 -0.310957,-0.45986 -0.615978,-0.92365 -0.916075,-1.39127 -0.300094,-0.46763 -0.594532,-0.93929 -0.883585,-1.41448 -0.289055,-0.47521 -0.573272,-0.95417 -0.851106,-1.43676 -0.277829,-0.48259 -0.549405,-0.96831 -0.81583,-1.45811 -0.266429,-0.4898 -0.527584,-0.98356 -0.782423,-1.48038 -0.254839,-0.49683 -0.50408,-0.99713 -0.747148,-1.5008 -0.243069,-0.50367 -0.47984,-1.01089 -0.710957,-1.52122 -0.231117,-0.51034 -0.455776,-1.02389 -0.674756,-1.54071 -0.21898,-0.51681 -0.431897,-1.03617 -0.638559,-1.55927 -0.206662,-0.52311 -0.407272,-1.04955 -0.601432,-1.57876 -0.194164,-0.52923 -0.381904,-1.06125 -0.563381,-1.5964 -0.181481,-0.53516 -0.356713,-1.07406 -0.525327,-1.61496 -0.168613,-0.5409 -0.330777,-1.08428 -0.486345,-1.63075 -0.155564,-0.54646 -0.305026,-1.09559 -0.44736,-1.64744 -0.142339,-0.55184 -0.277601,-1.10617 -0.406525,-1.66322 -0.128923,-0.55705 -0.251289,-1.11693 -0.366617,-1.67901 -0.115328,-0.56207 -0.223295,-1.12693 -0.324847,-1.69385 -0.101556,-0.56691 -0.196417,-1.13621 -0.284012,-1.70777 -0.08759,-0.57157 -0.168794,-1.14473 -0.242241,-1.72077 -0.07345,-0.57604 -0.139498,-1.15437 -0.198623,-1.73469 -0.05912,-0.58032 -0.111312,-1.16325 -0.155929,-1.74768 -0.04462,-0.58444 -0.08144,-1.17046 -0.111375,-1.75882 -0.02993,-0.58836 -0.05269,-1.17879 -0.06775,-1.77089 -0.01506,-0.59211 -0.02227,-1.18636 -0.02228,-1.78203 0,-0.59566 0.0072,-1.189 0.02228,-1.7811 0.01506,-0.59209 0.03782,-1.18253 0.06775,-1.77088 0.02993,-0.58836 0.06676,-1.17532 0.111375,-1.75976 0.04462,-0.58443 0.0968,-1.16642 0.155929,-1.74675 0.05913,-0.58033 0.12517,-1.15865 0.198623,-1.73468 0.07345,-0.57604 0.15465,-1.15014 0.242241,-1.72171 0.0876,-0.57156 0.18246,-1.14086 0.284012,-1.70777 0.101556,-0.56691 0.209519,-1.13085 0.324847,-1.69292 0.115328,-0.56208 0.237694,-1.12195 0.366617,-1.67901 0.128924,-0.55706 0.264186,-1.11137 0.406525,-1.66322 0.142334,-0.55186 0.291796,-1.10098 0.44736,-1.64745 0.155568,-0.54646 0.317732,-1.09075 0.486345,-1.63167 0.168614,-0.5409 0.343846,-1.07887 0.525327,-1.61402 0.181477,-0.53515 0.369217,-1.06718 0.563381,-1.5964 0.19416,-0.52922 0.39477,-1.05566 0.601432,-1.57877 0.206662,-0.5231 0.419579,-1.04246 0.638559,-1.55927 0.21898,-0.51681 0.443639,-1.03038 0.674756,-1.54071 0.231117,-0.51033 0.467888,-1.01754 0.710957,-1.52122 0.243068,-0.50366 0.492309,-1.00397 0.747148,-1.5008 0.254839,-0.49682 0.515994,-0.99058 0.782423,-1.48038 0.266425,-0.48979 0.538001,-0.97551 0.81583,-1.4581 0.277834,-0.48259 0.562051,-0.96156 0.851106,-1.43676 0.289053,-0.4752 0.583491,-0.94686 0.883585,-1.41448 0.300097,-0.46763 0.605118,-0.93141 0.916075,-1.39129 0.310951,-0.45986 0.627853,-0.91614 0.949482,-1.36807 0.321629,-0.45193 0.647992,-0.90014 0.980114,-1.34394 0.332126,-0.44381 0.670165,-0.88338 1.012599,-1.31888 0.342434,-0.43551 0.689739,-0.86682 1.042299,-1.29383 0.352566,-0.42702 0.709493,-0.84949 1.072,-1.26784 0.362507,-0.41835 0.73036,-0.83235 1.102632,-1.24185 0.372268,-0.4095 0.749548,-0.81446 1.131396,-1.21494 0.381853,-0.40046 0.767997,-0.79676 1.159248,-1.18801 0.391248,-0.39125 0.787551,-0.77739 1.188017,-1.15924 0.400467,-0.38186 0.805433,-0.75913 1.214933,-1.13141 0.4095,-0.37226 0.823495,-0.73918 1.241848,-1.10169 0.418348,-0.36251 0.840817,-0.72036 1.267838,-1.07293 0.42702,-0.35256 0.858318,-0.69986 1.293821,-1.0423 0.435509,-0.34243 0.87508,-0.68048 1.318884,-1.0126 0.44381,-0.33212 0.892016,-0.65848 1.343948,-0.98011 0.45193,-0.32163 0.908205,-0.63853 1.368077,-0.94949 0.459867,-0.31095 0.92365,-0.61597 1.391277,-0.91606 0.467627,-0.30011 0.939284,-0.59454 1.414482,-0.88359 0.475201,-0.28906 0.953241,-0.57328 1.435832,-0.85111 0.482592,-0.27784 0.969231,-0.5494 1.459032,-0.81583 0.4898,-0.26643 0.983555,-0.52758 1.480379,-0.78242 0.496828,-0.25484 0.997131,-0.50315 1.500802,-0.74622 0.503667,-0.24307 1.009957,-0.48077 1.520291,-0.71189 0.51033,-0.23112 1.0239,-0.45578 1.540707,-0.67475 0.51681,-0.21898 1.037096,-0.4319 1.560203,-0.63856 0.523108,-0.20666 1.049542,-0.40727 1.57876,-0.60143 0.529224,-0.19417 1.061247,-0.3819 1.5964,-0.56339 0.535149,-0.18147 1.073132,-0.35671 1.614031,-0.52533 0.540904,-0.16861 1.085201,-0.33077 1.63167,-0.48634 0.546469,-0.15557 1.095589,-0.30503 1.647442,-0.44737 0.551852,-0.14233 1.106172,-0.27759 1.663224,-0.40652 0.557056,-0.12892 1.116931,-0.25129 1.679005,-0.36661 0.562069,-0.11533 1.126012,-0.22329 1.692924,-0.32485 0.566908,-0.10152 1.136206,-0.19642 1.707775,-0.284 0.571564,-0.0876 1.145657,-0.16788 1.721693,-0.24133 0.57604,-0.0734 1.154362,-0.14042 1.73469,-0.19955 0.580327,-0.0591 1.162323,-0.11038 1.746755,-0.15499 0.584434,-0.0447 1.171394,-0.0824 1.759744,-0.11231 0.58836,-0.0299 1.17879,-0.0527 1.77089,-0.0677 0.5921,-0.0151 1.18543,-0.0223 1.7811,-0.0223 z" />
    <path
       style="color:#000000;fill:#000000;stroke:none;stroke-width:1.28186;-inkscape-stroke:none"
       d="m 105.01836,39.40941 c 12.68028,0 22.87822,10.197942 22.87822,22.878201 0,12.68027 -10.19794,22.875714 -22.87822,22.875714 -12.680248,0 -22.878186,-10.195444 -22.878186,-22.875714 0,-12.680258 10.197938,-22.8782 22.878186,-22.878201 z"
       id="path3915" />
  </g>
</svg>
