<?xml version="1.0" encoding="UTF-8" standalone="no"?>
<!-- Created with Inkscape (http://www.inkscape.org/) -->

<svg
   width="64"
   height="64"
   viewBox="0 0 16.933332 16.933332"
   version="1.1"
   id="svg5"
   inkscape:version="1.1.1 (3bf5ae0d25, 2021-09-20)"
   sodipodi:docname="synth-saw.svg"
   xmlns:inkscape="http://www.inkscape.org/namespaces/inkscape"
   xmlns:sodipodi="http://sodipodi.sourceforge.net/DTD/sodipodi-0.dtd"
   xmlns="http://www.w3.org/2000/svg"
   xmlns:svg="http://www.w3.org/2000/svg">
  <sodipodi:namedview
     id="namedview7"
     pagecolor="#ffffff"
     bordercolor="#999999"
     borderopacity="1"
     inkscape:pageshadow="0"
     inkscape:pageopacity="0"
     inkscape:pagecheckerboard="0"
     inkscape:document-units="px"
     showgrid="true"
     showguides="true"
     inkscape:zoom="7.7618924"
     inkscape:cx="29.825201"
     inkscape:cy="29.954035"
     inkscape:window-width="1920"
     inkscape:window-height="1017"
     inkscape:window-x="-8"
     inkscape:window-y="-8"
     inkscape:window-maximized="1"
     inkscape:current-layer="g1384"
     units="px">
    <inkscape:grid
       type="xygrid"
       id="grid822"
       empspacing="4" />
  </sodipodi:namedview>
  <defs
     id="defs2" />
  <g
     inkscape:groupmode="layer"
     id="layer2"
     inkscape:label="Original"
     style="display:none">
    <rect
       style="opacity:1;fill:#000000;stroke:none;stroke-width:0.247332;stroke-linejoin:round"
       id="rect1662"
       width="16.933332"
       height="16.933332"
       x="0"
       y="0" />
  </g>
  <g
     inkscape:groupmode="layer"
     id="layer1"
     inkscape:label="Original 1"
     style="display:none">
    <path
       style="display:inline;fill:none;stroke:#000000;stroke-width:1.85208;stroke-linecap:round;stroke-linejoin:round;stroke-miterlimit:4;stroke-dasharray:none;stroke-opacity:1"
       d="m 1.0520061,8.4558197 0.00633,-5.2808199 14.8166659,9.5249992 -0.0063,-4.2441793"
       id="path980"
       sodipodi:nodetypes="cccc" />
  </g>
  <g
     inkscape:groupmode="layer"
     id="g1121"
     inkscape:label="wave center"
     style="display:none">
    <path
       style="display:inline;fill:none;stroke:#000000;stroke-width:1.85208;stroke-linecap:round;stroke-linejoin:round;stroke-miterlimit:4;stroke-dasharray:none;stroke-opacity:1"
       d="m 1.0520061,8.466666 7.408348,-4.7624996 v 9.5249996 l 7.4083479,-4.7625"
       id="path1119"
       sodipodi:nodetypes="cccc" />
  </g>
  <g
     inkscape:groupmode="layer"
     id="g1384"
     inkscape:label="wave center copy"
     style="display:inline">
    <path
       style="color:#000000;fill:#000000;stroke-linecap:round;stroke-linejoin:round;-inkscape-stroke:none"
       d="M 8.9042969,2.890625 A 0.9261326,0.9261326 0 0 0 7.9589844,2.9257813 L 0.55078125,7.6875 A 0.92603999,0.92603999 0 0 0 0.2734375,8.9667969 0.92603999,0.92603999 0 0 0 1.5527344,9.2460938 L 7.5351562,5.3984375 v 7.8300785 a 0.9261326,0.9261326 0 0 0 1.4257813,0.779297 L 16.369141,9.2460938 A 0.92603999,0.92603999 0 0 0 16.648437,7.9667969 0.92603999,0.92603999 0 0 0 15.367188,7.6875 L 9.3867188,11.533203 V 3.7050781 A 0.9261326,0.9261326 0 0 0 8.9042969,2.890625 Z"
       id="path1382" />
  </g>
  <g
     inkscape:groupmode="layer"
     id="g1072"
     inkscape:label="Original 1 copy"
     style="display:none">
    <path
       style="color:#000000;fill:#000000;stroke-linecap:round;stroke-linejoin:round;-inkscape-stroke:none"
       d="m 0.61523437,2.3613281 a 0.9261326,0.9261326 0 0 0 -0.48242187,0.8125 L 0.125,8.4550781 A 0.92603999,0.92603999 0 0 0 1.0507812,9.3828125 0.92603999,0.92603999 0 0 0 1.9785156,8.4570313 L 1.9824219,4.8691406 15.375,13.478516 a 0.9261326,0.9261326 0 0 0 1.425781,-0.779297 l -0.0059,-4.2441409 A 0.92603999,0.92603999 0 0 0 15.867188,7.5292969 0.92603999,0.92603999 0 0 0 14.943359,8.4570313 l 0.0039,2.5468747 L 1.5585937,2.3964844 A 0.9261326,0.9261326 0 0 0 0.61523437,2.3613281 Z"
       id="path1070" />
  </g>
</svg>
