<?xml version="1.0" encoding="UTF-8" standalone="no"?>
<!-- Created with Inkscape (http://www.inkscape.org/) -->

<svg
   width="64"
   height="64"
   viewBox="0 0 16.933332 16.933332"
   version="1.1"
   id="svg5"
   inkscape:version="1.1.1 (3bf5ae0d25, 2021-09-20)"
   sodipodi:docname="synth-triangle.svg"
   xmlns:inkscape="http://www.inkscape.org/namespaces/inkscape"
   xmlns:sodipodi="http://sodipodi.sourceforge.net/DTD/sodipodi-0.dtd"
   xmlns="http://www.w3.org/2000/svg"
   xmlns:svg="http://www.w3.org/2000/svg">
  <sodipodi:namedview
     id="namedview7"
     pagecolor="#ffffff"
     bordercolor="#999999"
     borderopacity="1"
     inkscape:pageshadow="0"
     inkscape:pageopacity="0"
     inkscape:pagecheckerboard="0"
     inkscape:document-units="px"
     showgrid="true"
     showguides="true"
     inkscape:zoom="7.7618924"
     inkscape:cx="29.825201"
     inkscape:cy="29.954035"
     inkscape:window-width="1920"
     inkscape:window-height="1017"
     inkscape:window-x="-8"
     inkscape:window-y="-8"
     inkscape:window-maximized="1"
     inkscape:current-layer="g1207"
     units="px">
    <inkscape:grid
       type="xygrid"
       id="grid822"
       empspacing="4" />
  </sodipodi:namedview>
  <defs
     id="defs2" />
  <g
     inkscape:groupmode="layer"
     id="layer2"
     inkscape:label="Original"
     style="display:none">
    <rect
       style="opacity:1;fill:#000000;stroke:none;stroke-width:0.247332;stroke-linejoin:round"
       id="rect1662"
       width="16.933332"
       height="16.933332"
       x="0"
       y="0" />
  </g>
  <g
     inkscape:groupmode="layer"
     id="layer1"
     inkscape:label="Original 1"
     style="display:none">
    <path
       style="display:inline;fill:none;stroke:#000000;stroke-width:1.85208;stroke-linecap:round;stroke-linejoin:round;stroke-miterlimit:4;stroke-dasharray:none;stroke-opacity:1"
       d="m 1.0520059,8.466666 3.7057484,-4.7624996 7.4114967,9.5249996 3.705748,-4.7625"
       id="path980"
       sodipodi:nodetypes="cccc" />
  </g>
  <g
     inkscape:groupmode="layer"
     id="g1207"
     inkscape:label="Original 1 copy"
     style="display:inline">
    <path
       style="color:#000000;fill:#000000;stroke-linecap:round;stroke-linejoin:round;-inkscape-stroke:none"
       d="M 4.7578125,2.7773438 A 0.9261326,0.9261326 0 0 0 4.0273437,3.1347656 L 0.3203125,7.8984375 A 0.92603999,0.92603999 0 0 0 0.48242188,9.1972656 0.92603999,0.92603999 0 0 0 1.7832031,9.0351563 L 4.7578125,5.2128906 11.4375,13.796875 a 0.9261326,0.9261326 0 0 0 1.462891,0 L 16.605469,9.0351563 A 0.92603999,0.92603999 0 0 0 16.443359,7.7363281 0.92603999,0.92603999 0 0 0 15.144531,7.8984375 L 12.169922,11.720703 5.4882812,3.1347656 A 0.9261326,0.9261326 0 0 0 4.7578125,2.7773438 Z"
       id="path1205" />
  </g>
</svg>
